<svg width="25" height="28" viewBox="0 0 25 28" fill="none" xmlns="http://www.w3.org/2000/svg">
<path d="M16.6071 7.5C16.6071 6.42256 16.1744 5.38925 15.4042 4.62738C14.634 3.86551 13.5893 3.4375 12.5 3.4375C11.4107 3.4375 10.3661 3.86551 9.59581 4.62738C8.82557 5.38925 8.39286 6.42256 8.39286 7.5C8.39286 8.57744 8.82557 9.61075 9.59581 10.3726C10.3661 11.1345 11.4107 11.5625 12.5 11.5625C13.5893 11.5625 14.634 11.1345 15.4042 10.3726C16.1744 9.61075 16.6071 8.57744 16.6071 7.5ZM5.92857 7.5C5.92857 5.77609 6.62092 4.12279 7.8533 2.90381C9.08568 1.68482 10.7571 1 12.5 1C14.2429 1 15.9143 1.68482 17.1467 2.90381C18.3791 4.12279 19.0714 5.77609 19.0714 7.5C19.0714 9.22391 18.3791 10.8772 17.1467 12.0962C15.9143 13.3152 14.2429 14 12.5 14C10.7571 14 9.08568 13.3152 7.8533 12.0962C6.62092 10.8772 5.92857 9.22391 5.92857 7.5ZM3.53103 24.5625H21.469C21.0121 21.348 18.2192 18.875 14.8462 18.875H10.1538C6.7808 18.875 3.98795 21.348 3.53103 24.5625ZM1 25.4918C1 20.4898 5.09688 16.4375 10.1538 16.4375H14.8462C19.9031 16.4375 24 20.4898 24 25.4918C24 26.3246 23.3172 27 22.4752 27H2.52478C1.68281 27 1 26.3246 1 25.4918Z" fill="black" stroke="black"/>
</svg>
