<svg width="12" height="12" viewBox="0 0 12 12" fill="none" xmlns="http://www.w3.org/2000/svg">
<path d="M5.16663 6.83342H0.99996C0.539722 6.83342 0.166626 6.46032 0.166626 6.00008C0.166626 5.53984 0.539722 5.16675 0.99996 5.16675H5.16663V1.00008C5.16663 0.539845 5.53972 0.166748 5.99996 0.166748C6.4602 0.166748 6.83329 0.539844 6.83329 1.00008V5.16675H11C11.4602 5.16675 11.8333 5.53984 11.8333 6.00008C11.8333 6.46032 11.4602 6.83342 11 6.83342H6.83329V11.0001C6.83329 11.4603 6.4602 11.8334 5.99996 11.8334C5.53972 11.8334 5.16663 11.4603 5.16663 11.0001V6.83342Z" fill="#1C1B1F"/>
</svg>
