<svg width="32" height="37" viewBox="0 0 32 37" fill="none" xmlns="http://www.w3.org/2000/svg">
<path d="M11.4286 8.09375C11.4286 5.54277 13.4786 3.46875 16 3.46875C18.5214 3.46875 20.5714 5.54277 20.5714 8.09375V11.5625H11.4286V8.09375ZM8 11.5625H3.42857C1.53571 11.5625 0 13.1162 0 15.0312V30.0625C0 33.8926 3.07143 37 6.85714 37H25.1429C28.9286 37 32 33.8926 32 30.0625V15.0312C32 13.1162 30.4643 11.5625 28.5714 11.5625H24V8.09375C24 3.62051 20.4214 0 16 0C11.5786 0 8 3.62051 8 8.09375V11.5625ZM9.71429 15.0312C10.1689 15.0313 10.605 15.214 10.9265 15.5392C11.248 15.8645 11.4286 16.3056 11.4286 16.7656C11.4286 17.2256 11.248 17.6668 10.9265 17.992C10.605 18.3173 10.1689 18.5 9.71429 18.5C9.25963 18.5 8.82359 18.3173 8.5021 17.992C8.18061 17.6668 8 17.2256 8 16.7656C8 16.3056 8.18061 15.8645 8.5021 15.5392C8.82359 15.214 9.25963 15.0313 9.71429 15.0312ZM20.5714 16.7656C20.5714 16.3056 20.752 15.8645 21.0735 15.5392C21.395 15.214 21.8311 15.0313 22.2857 15.0312C22.7404 15.0313 23.1764 15.214 23.4979 15.5392C23.8194 15.8645 24 16.3056 24 16.7656C24 17.2256 23.8194 17.6668 23.4979 17.992C23.1764 18.3173 22.7404 18.5 22.2857 18.5C21.8311 18.5 21.395 18.3173 21.0735 17.992C20.752 17.6668 20.5714 17.2256 20.5714 16.7656Z" fill="black"/>
</svg>
