<svg width="34" height="30" viewBox="0 0 34 30" fill="none" xmlns="http://www.w3.org/2000/svg">
<path d="M3.16094 17.6944L15.1605 29.2532C15.6586 29.7328 16.316 30 17 30C17.684 30 18.3414 29.7328 18.8395 29.2532L30.8391 17.6944C32.8578 15.7554 34 13.0353 34 10.1918V9.79441C34 5.00509 30.6465 0.921489 26.0711 0.133546C23.043 -0.387181 19.9617 0.633719 17.7969 2.86736L17 3.68957L16.2031 2.86736C14.0383 0.633719 10.957 -0.387181 7.92891 0.133546C3.35352 0.921489 0 5.00509 0 9.79441V10.1918C0 13.0353 1.14219 15.7554 3.16094 17.6944Z" fill="black"/>
</svg>
