<svg width="42" height="53" viewBox="0 0 42 53" fill="none" xmlns="http://www.w3.org/2000/svg">
<path d="M21 26C22.375 26 23.5521 25.5104 24.5313 24.5313C25.5104 23.5521 26 22.375 26 21C26 19.625 25.5104 18.4479 24.5313 17.4688C23.5521 16.4896 22.375 16 21 16C19.625 16 18.4479 16.4896 17.4688 17.4688C16.4896 18.4479 16 19.625 16 21C16 22.375 16.4896 23.5521 17.4688 24.5313C18.4479 25.5104 19.625 26 21 26ZM21 44.375C26.0833 39.7083 29.8542 35.4687 32.3125 31.6562C34.7708 27.8437 36 24.4583 36 21.5C36 16.9583 34.5521 13.2396 31.6562 10.3437C28.7604 7.44792 25.2083 6 21 6C16.7917 6 13.2396 7.44792 10.3437 10.3437C7.44792 13.2396 6 16.9583 6 21.5C6 24.4583 7.22917 27.8437 9.6875 31.6562C12.1458 35.4687 15.9167 39.7083 21 44.375ZM21 51C14.2917 45.2917 9.28125 39.9896 5.96875 35.0937C2.65625 30.1979 1 25.6667 1 21.5C1 15.25 3.01042 10.2708 7.03125 6.5625C11.0521 2.85417 15.7083 1 21 1C26.2917 1 30.9479 2.85417 34.9688 6.5625C38.9896 10.2708 41 15.25 41 21.5C41 25.6667 39.3437 30.1979 36.0312 35.0937C32.7187 39.9896 27.7083 45.2917 21 51Z" fill="#1C1B1F" stroke="#1C1B1F" stroke-width="2"/>
</svg>
