<svg width="26" height="32" viewBox="0 0 26 32" fill="none" xmlns="http://www.w3.org/2000/svg">
<mask id="mask0_7_1618" style="mask-type:alpha" maskUnits="userSpaceOnUse" x="0" y="0" width="26" height="32">
<rect width="26" height="32" fill="#D9D9D9"/>
</mask>
<g mask="url(#mask0_7_1618)">
<path d="M13.0429 25.7353C15.8714 23.6598 18 21.5772 19.4286 19.4875C20.8571 17.3978 21.5714 15.301 21.5714 13.1971C21.5714 10.2971 20.6429 8.10784 18.7857 6.62941C16.9286 5.15098 15 4.41176 13 4.41176C11 4.41176 9.07143 5.15098 7.21429 6.62941C5.35714 8.10784 4.42857 10.2971 4.42857 13.1971C4.42857 15.102 5.12857 17.085 6.52857 19.1463C7.92857 21.2076 10.1 23.4039 13.0429 25.7353ZM13 30C8.97143 27.0431 5.96429 24.1716 3.97857 21.3853C1.99286 18.599 1 15.8696 1 13.1971C1 11.1784 1.36429 9.40858 2.09286 7.8875C2.82143 6.36642 3.75714 5.09412 4.9 4.07059C6.04286 3.04706 7.32857 2.27941 8.75714 1.76765C10.1857 1.25588 11.6 1 13 1C14.4 1 15.8143 1.25588 17.2429 1.76765C18.6714 2.27941 19.9571 3.04706 21.1 4.07059C22.2429 5.09412 23.1786 6.36642 23.9071 7.8875C24.6357 9.40858 25 11.1784 25 13.1971C25 15.8696 24.0071 18.599 22.0214 21.3853C20.0357 24.1716 17.0286 27.0431 13 30Z" fill="black"/>
<path d="M18.3748 12.9194V17.7778C18.3748 18.1139 18.2578 18.4016 18.0239 18.641C17.79 18.8803 17.5088 19 17.1804 19H8.81962C8.49116 19 8.20998 18.8803 7.97608 18.641C7.74218 18.4016 7.62523 18.1139 7.62523 17.7778V12.9194C7.3963 12.7056 7.21963 12.4306 7.09522 12.0944C6.9708 11.7583 6.96831 11.3917 7.08775 10.9944L7.71481 8.91667C7.79443 8.65185 7.93627 8.43287 8.14031 8.25972C8.34435 8.08657 8.58074 8 8.84948 8H17.1505C17.4193 8 17.6532 8.08403 17.8522 8.25208C18.0513 8.42014 18.1956 8.64167 18.2852 8.91667L18.9122 10.9944C19.0317 11.3917 19.0292 11.7532 18.9048 12.0792C18.7804 12.4051 18.6037 12.6852 18.3748 12.9194ZM14.3138 12.2778C14.5826 12.2778 14.7866 12.1836 14.926 11.9951C15.0653 11.8067 15.12 11.5954 15.0902 11.3611L14.7617 9.22222H13.5972V11.4833C13.5972 11.6972 13.6669 11.8831 13.8062 12.041C13.9456 12.1988 14.1148 12.2778 14.3138 12.2778ZM11.6264 12.2778C11.8554 12.2778 12.042 12.1988 12.1863 12.041C12.3306 11.8831 12.4028 11.6972 12.4028 11.4833V9.22222H11.2383L10.9098 11.3611C10.87 11.6056 10.9223 11.8194 11.0666 12.0028C11.2109 12.1861 11.3975 12.2778 11.6264 12.2778ZM8.96892 12.2778C9.14808 12.2778 9.30484 12.2116 9.43921 12.0792C9.57358 11.9468 9.6557 11.7787 9.68556 11.575L10.014 9.22222H8.84948L8.25229 11.2694C8.19257 11.4731 8.22491 11.6921 8.34933 11.9264C8.47375 12.1606 8.68028 12.2778 8.96892 12.2778ZM17.0311 12.2778C17.3197 12.2778 17.5287 12.1606 17.6581 11.9264C17.7875 11.6921 17.8174 11.4731 17.7477 11.2694L17.1207 9.22222H15.986L16.3144 11.575C16.3443 11.7787 16.4264 11.9468 16.5608 12.0792C16.6952 12.2116 16.8519 12.2778 17.0311 12.2778ZM8.81962 17.7778H17.1804V13.4694C17.1306 13.4898 17.0983 13.5 17.0833 13.5H17.0311C16.7623 13.5 16.526 13.4542 16.3219 13.3625C16.1179 13.2708 15.9163 13.1231 15.7172 12.9194C15.5381 13.1028 15.334 13.2454 15.1051 13.3472C14.8762 13.4491 14.6323 13.5 14.3736 13.5C14.1048 13.5 13.8535 13.4491 13.6196 13.3472C13.3857 13.2454 13.1792 13.1028 13 12.9194C12.8308 13.1028 12.6342 13.2454 12.4103 13.3472C12.1863 13.4491 11.945 13.5 11.6862 13.5C11.3975 13.5 11.1362 13.4491 10.9023 13.3472C10.6684 13.2454 10.4619 13.1028 10.2828 12.9194C10.0737 13.1333 9.86721 13.2836 9.66316 13.3701C9.45912 13.4567 9.22771 13.5 8.96892 13.5H8.90174C8.87685 13.5 8.84948 13.4898 8.81962 13.4694V17.7778Z" fill="black" stroke="black" stroke-width="0.9"/>
</g>
</svg>
