<svg width="25" height="22" viewBox="0 0 25 22" fill="none" xmlns="http://www.w3.org/2000/svg">
<path d="M1.89794 21.5C0.849737 21.5 0 20.6503 0 19.6021V19.6021C0 18.5539 0.849738 17.7041 1.89794 17.7041H23.1021C24.1503 17.7041 25 18.5539 25 19.6021V19.6021C25 20.6503 24.1503 21.5 23.1021 21.5H1.89794ZM1.89794 12.8979C0.849737 12.8979 0 12.0482 0 11V11C0 9.95179 0.849738 9.10206 1.89794 9.10206H23.1021C24.1503 9.10206 25 9.95179 25 11V11C25 12.0482 24.1503 12.8979 23.1021 12.8979H1.89794ZM1.89794 4.29588C0.849737 4.29588 0 3.44615 0 2.39794V2.39794C0 1.34974 0.849738 0.5 1.89794 0.5H23.1021C24.1503 0.5 25 1.34974 25 2.39794V2.39794C25 3.44615 24.1503 4.29588 23.1021 4.29588H1.89794Z" fill="#1C1B1F"/>
</svg>
